<svg width="56" height="56" viewBox="0 0 56 56" fill="none" xmlns="http://www.w3.org/2000/svg">
<rect width="56" height="56" rx="8" fill="url(#paint0_linear_8_2453)"/>
<path d="M37.4358 18.5705C34.9212 16.0545 31.5772 14.6678 28.0145 14.6665C20.6732 14.6665 14.6985 20.6385 14.6958 27.9798C14.6945 30.3265 15.3078 32.6172 16.4732 34.6358L14.6665 41.3332L21.6438 39.6838C23.5892 40.7452 25.7785 41.3038 28.0078 41.3052H28.0132C35.3532 41.3052 41.3278 35.3318 41.3318 27.9918C41.3345 24.4332 39.9505 21.0878 37.4358 18.5705ZM34.5305 32.7385C34.2532 33.5158 32.8945 34.2652 32.2838 34.3198C31.6732 34.3758 31.1012 34.5958 28.2905 33.4878C24.9078 32.1545 22.7718 28.6865 22.6065 28.4652C22.4398 28.2425 21.2478 26.6612 21.2478 25.0238C21.2478 23.3865 22.1078 22.5812 22.4132 22.2492C22.7185 21.9158 23.0785 21.8332 23.3012 21.8332C23.5225 21.8332 23.7452 21.8332 23.9385 21.8412C24.1758 21.8505 24.4385 21.8625 24.6878 22.4158C24.9838 23.0745 25.6305 24.7198 25.7132 24.8865C25.7958 25.0532 25.8518 25.2478 25.7412 25.4692C25.6305 25.6905 25.5745 25.8292 25.4092 26.0238C25.2425 26.2185 25.0598 26.4572 24.9105 26.6065C24.7438 26.7718 24.5705 26.9532 24.7638 27.2852C24.9585 27.6185 25.6252 28.7078 26.6145 29.5892C27.8865 30.7225 28.9572 31.0732 29.2905 31.2412C29.6238 31.4078 29.8172 31.3798 30.0118 31.1572C30.2065 30.9358 30.8438 30.1865 31.0652 29.8532C31.2865 29.5198 31.5092 29.5758 31.8145 29.6865C32.1198 29.7972 33.7558 30.6025 34.0878 30.7692C34.4212 30.9358 34.6425 31.0185 34.7252 31.1572C34.8078 31.2945 34.8078 31.9612 34.5305 32.7385Z" fill="white"/>
<defs>
<linearGradient id="paint0_linear_8_2453" x1="1.20344" y1="-30.8966" x2="70.2559" y2="-20.7321" gradientUnits="userSpaceOnUse">
<stop stop-color="#0098FF"/>
<stop offset="0.489583" stop-color="#56BBFF"/>
</linearGradient>
</defs>
</svg>
