<svg width="56" height="56" viewBox="0 0 56 56" fill="none" xmlns="http://www.w3.org/2000/svg">
<rect width="56" height="56" rx="8" fill="url(#paint0_linear_8_2449)"/>
<path d="M15.8865 27.7438C24.2652 24.0578 35.1078 19.5638 36.6045 18.9418C40.5305 17.3138 41.7352 17.6258 41.1345 21.2311C40.7032 23.8225 39.4585 32.4018 38.4665 37.7418C37.8778 40.9085 36.5572 41.2838 34.4805 39.9138C33.4818 39.2544 28.4412 35.9211 27.3472 35.1385C26.3485 34.4251 24.9712 33.5671 26.6985 31.8771C27.3132 31.2751 31.3425 27.4278 34.4818 24.4331C34.8932 24.0398 34.3765 23.3938 33.9018 23.7091C29.6705 26.5151 23.8038 30.4098 23.0572 30.9171C21.9292 31.6831 20.8458 32.0345 18.9012 31.4758C17.4318 31.0538 15.9965 30.5505 15.4378 30.3585C13.2865 29.6198 13.7972 28.6631 15.8865 27.7438Z" fill="white"/>
<defs>
<linearGradient id="paint0_linear_8_2449" x1="1.20344" y1="-30.8966" x2="70.2559" y2="-20.7321" gradientUnits="userSpaceOnUse">
<stop stop-color="#0098FF"/>
<stop offset="0.489583" stop-color="#56BBFF"/>
</linearGradient>
</defs>
</svg>
